<?xml version="1.0" standalone="no"?>
<!DOCTYPE svg PUBLIC "-//W3C//DTD SVG 20010904//EN"
 "http://www.w3.org/TR/2001/REC-SVG-20010904/DTD/svg10.dtd">
<svg version="1.0" xmlns="http://www.w3.org/2000/svg"
 width="106.000000pt" height="33.000000pt" viewBox="0 0 106.000000 33.000000"
 preserveAspectRatio="xMidYMid meet">

<g transform="translate(0.000000,33.000000) scale(0.100000,-0.100000)"
fill="#000000" stroke="none">
<path d="M150 198 c-19 -51 -36 -96 -38 -100 -2 -4 5 -8 15 -8 14 0 23 13 34
47 8 27 19 47 24 47 6 -1 17 -22 25 -48 10 -31 21 -46 33 -46 9 0 17 1 17 3 0
2 -17 47 -38 100 l-38 97 -34 -92z"/>
<path d="M280 275 c0 -11 11 -15 39 -15 22 0 44 -6 51 -15 19 -23 -5 -45 -51
-45 l-39 0 0 -55 c0 -42 3 -55 15 -55 11 0 15 11 15 40 0 53 21 53 45 0 11
-25 25 -40 36 -40 16 0 17 3 7 28 -7 15 -16 33 -22 40 -6 9 -3 17 12 28 30 20
29 68 0 88 -30 21 -108 22 -108 1z"/>
<path d="M490 283 c-38 -14 -60 -47 -60 -89 0 -56 7 -72 41 -89 38 -20 109
-20 109 0 0 11 -11 15 -40 15 -75 0 -109 76 -53 120 33 26 59 22 56 -8 -2 -16
3 -22 17 -22 17 0 20 7 20 40 0 40 0 40 -37 39 -21 0 -45 -3 -53 -6z"/>
<path d="M641 272 c-58 -29 -66 -121 -14 -162 32 -25 113 -29 113 -5 0 11 -11
15 -38 15 -47 0 -75 27 -75 72 0 34 32 68 64 68 14 0 19 -7 19 -25 0 -16 6
-25 15 -25 11 0 15 11 15 40 0 38 -1 40 -32 40 -18 0 -49 -8 -67 -18z"/>
<path d="M760 251 c0 -34 3 -41 20 -41 15 0 20 7 20 25 0 16 6 25 15 25 23 0
65 -46 65 -70 0 -24 -42 -70 -65 -70 -9 0 -15 9 -15 25 0 18 -5 25 -20 25 -17
0 -20 -7 -20 -40 l0 -40 40 0 c46 0 95 21 104 45 3 9 6 36 6 59 0 58 -31 87
-100 94 l-50 5 0 -42z"/>
</g>
</svg>
